<?xml version="1.0" encoding="UTF-8" standalone="no"?>
<!-- Created with Inkscape (http://www.inkscape.org/) -->

<svg
   width="8.8165026mm"
   height="16.259905mm"
   viewBox="0 0 8.8165026 16.259905"
   version="1.1"
   id="svg1"
   inkscape:version="1.4.4 (dcaf3e7d9e, 2026-05-05)"
   sodipodi:docname="pedestrian.svg"
   xmlns:inkscape="http://www.inkscape.org/namespaces/inkscape"
   xmlns:sodipodi="http://sodipodi.sourceforge.net/DTD/sodipodi-0.dtd"
   xmlns="http://www.w3.org/2000/svg"
   xmlns:svg="http://www.w3.org/2000/svg">
  <sodipodi:namedview
     id="namedview1"
     pagecolor="#505050"
     bordercolor="#eeeeee"
     borderopacity="1"
     inkscape:showpageshadow="0"
     inkscape:pageopacity="0"
     inkscape:pagecheckerboard="0"
     inkscape:deskcolor="#505050"
     inkscape:document-units="mm"
     inkscape:zoom="5.9508979"
     inkscape:cx="9.7464284"
     inkscape:cy="33.020227"
     inkscape:window-width="1920"
     inkscape:window-height="1043"
     inkscape:window-x="0"
     inkscape:window-y="0"
     inkscape:window-maximized="1"
     inkscape:current-layer="layer1" />
  <defs
     id="defs1" />
  <g
     inkscape:label="Layer 1"
     inkscape:groupmode="layer"
     id="layer1"
     transform="translate(-92.339583,-59.002082)">
    <path
       fill="param(fill) #d0d0d0"
       stroke="param(outline) none"
       stroke-width="param(outline-width) 1"
       d="m 92.458612,75.217525 c -0.05736,-0.0229 -0.110831,-0.0482 -0.118836,-0.0562 -0.01299,-0.013 0.625749,-1.19851 2.803384,-5.203228 0.396141,-0.728507 0.676168,-1.292149 0.694059,-1.397001 l 0.02999,-0.175765 1.237091,-0.01122 1.237094,-0.01122 v 0.134381 c 0,0.136673 0.13707,0.413674 0.876792,1.771898 0.515731,0.946956 1.457014,2.682466 1.722004,3.175006 0.212,0.39404 0.21636,0.40943 0.21587,0.762 -5.3e-4,0.28895 -0.0189,0.39437 -0.0938,0.53517 -0.10375,0.19503 -0.35696,0.480829 -0.42601,0.480829 -0.0245,0 -0.30561,-0.48102 -0.62459,-1.06892 -2.802026,-5.164341 -2.831794,-5.217586 -2.917152,-5.217586 -0.08063,0 -0.355793,0.490916 -2.621946,4.677836 -0.321351,0.59373 -0.636692,1.14618 -0.700757,1.22767 -0.06406,0.0815 -0.235361,0.210081 -0.380657,0.28575 -0.223718,0.11651 -0.30737,0.13717 -0.546226,0.1349 -0.155129,-0.001 -0.328979,-0.0214 -0.386335,-0.0443 z m 0.302778,-7.389504 c -0.05381,-0.01141 -0.107418,-0.0457 -0.119126,-0.07621 -0.02398,-0.0625 3.138789,-4.964609 3.337981,-5.173663 0.448474,-0.47068 1.275508,-0.583925 1.861574,-0.254904 0.216244,0.121402 2.330601,1.864127 2.561311,2.111121 0.20357,0.217943 0.22427,0.3466 0.22427,1.394133 0,0.629235 -0.0178,1.040249 -0.0498,1.146865 -0.0978,0.326572 -0.54238,0.707766 -0.828634,0.71056 l -0.09525,9.26e-4 v -1.286476 c 0,-1.164375 -0.007,-1.294604 -0.07408,-1.372101 -0.08297,-0.0959 -0.911474,-0.790491 -1.056474,-0.88572 -0.05136,-0.03373 -0.113276,-0.04904 -0.137583,-0.03402 -0.02962,0.0183 -0.0442,0.640796 -0.0442,1.887482 v 1.860167 h -1.248307 -1.248304 l -0.01111,-1.534583 c -0.0096,-1.330914 -0.01955,-1.534583 -0.07461,-1.534583 -0.03493,0 -0.2159,0.233351 -0.402166,0.518556 -0.186267,0.285207 -0.598228,0.916423 -0.915468,1.402703 -0.510711,0.782841 -0.600446,0.898008 -0.783167,1.005125 -0.16824,0.09863 -0.261113,0.122308 -0.502699,0.128169 -0.162983,0.004 -0.340361,-0.0021 -0.394172,-0.01355 z m 3.39984,-6.401083 c -0.402878,-0.105304 -0.764034,-0.433516 -0.888121,-0.807107 -0.205803,-0.619613 0.136384,-1.342822 0.731266,-1.545517 0.789331,-0.268953 1.583817,0.241588 1.64951,1.05999 0.03996,0.497857 -0.243263,0.988897 -0.69206,1.199857 -0.209227,0.09835 -0.604179,0.144117 -0.800595,0.09278 z"
       id="path830"
       inkscape:connector-curvature="0" />
  </g>
</svg>
